<?xml version="1.0" encoding="utf-8"?>
<!-- Generator: Adobe Illustrator 19.0.0, SVG Export Plug-In . SVG Version: 6.00 Build 0)  -->
<svg version="1.1" xmlns="http://www.w3.org/2000/svg" xmlns:xlink="http://www.w3.org/1999/xlink" x="0px" y="0px"
	 viewBox="0 0 160 166.3" style="enable-background:new 0 0 160 166.3;" xml:space="preserve">
<style type="text/css">
	.st0{fill:#6D6E71;}
	.st1{fill:#A7A9AC;}
	.st2{fill:#414042;}
</style>
<g id="Layer_1">
	<g id="XMLID_1_">
		<g id="XMLID_33_">
			<polygon id="XMLID_55_" class="st0" points="160,120.1 160,138.6 144,147.8 128,157 112,166.3 112,147.8 128,138.6 144,129.3 			
				"/>
			<polygon id="XMLID_54_" class="st0" points="160,27.7 160,46.2 144,55.4 144,37 			"/>
			<polygon id="XMLID_50_" class="st1" points="160,27.7 144,37 128,27.7 112,18.5 96,27.7 80,37 64,27.7 48,18.5 32,27.7 16,37 
				0,27.7 16,18.5 32,9.2 48,0 64,9.2 80,18.5 96,9.2 112,0 128,9.2 144,18.5 			"/>
			<polygon id="XMLID_48_" class="st1" points="160,120.1 144,129.3 128,138.6 112,147.8 96,138.6 80,129.3 96,120.1 112,129.3 
				128,120.1 144,110.8 			"/>
			<polygon id="XMLID_47_" class="st0" points="144,73.9 144,92.4 128,101.6 128,83.1 			"/>
			<polygon id="XMLID_46_" class="st2" points="144,37 144,55.4 128,46.2 112,37 112,18.5 128,27.7 			"/>
			<polygon id="XMLID_43_" class="st1" points="144,73.9 128,83.1 112,73.9 96,83.1 96,64.7 112,55.4 128,64.7 			"/>
			<polygon id="XMLID_42_" class="st2" points="128,83.1 128,101.6 112,92.4 112,73.9 			"/>
			<polygon id="XMLID_41_" class="st2" points="112,147.8 112,166.3 96,157 80,147.8 64,138.6 64,120.1 64,101.6 48,92.4 48,73.9 
				64,83.1 64,64.7 64,46.2 48,37 48,18.5 64,27.7 80,37 80,55.4 80,73.9 80,92.4 80,110.8 80,129.3 96,138.6 			"/>
			<polygon id="XMLID_40_" class="st0" points="112,73.9 112,92.4 96,101.6 96,120.1 80,129.3 80,110.8 80,92.4 80,73.9 80,55.4 
				80,37 96,27.7 112,18.5 112,37 96,46.2 96,64.7 96,83.1 			"/>
			<polygon id="XMLID_39_" class="st1" points="64,64.7 64,83.1 48,73.9 32,83.1 32,64.7 48,55.4 			"/>
			<polygon id="XMLID_38_" class="st0" points="48,73.9 48,92.4 32,101.6 32,120.1 32,138.6 16,147.8 16,129.3 16,110.8 16,92.4 
				16,73.9 16,55.4 16,37 32,27.7 48,18.5 48,37 32,46.2 32,64.7 32,83.1 			"/>
			<polygon id="XMLID_37_" class="st2" points="16,129.3 16,147.8 0,138.6 0,120.1 0,101.6 0,83.1 0,64.7 0,46.2 0,27.7 16,37 
				16,55.4 16,73.9 16,92.4 16,110.8 			"/>
		</g>
	</g>
</g>
<g id="Layer_2">
</g>
</svg>
