<?xml version="1.0" encoding="utf-8"?>
<!-- Generator: Adobe Illustrator 19.0.0, SVG Export Plug-In . SVG Version: 6.00 Build 0)  -->
<svg version="1.1" xmlns="http://www.w3.org/2000/svg" xmlns:xlink="http://www.w3.org/1999/xlink" x="0px" y="0px"
	 viewBox="0 0 1280 1280" style="enable-background:new 0 0 1280 1280;" xml:space="preserve">
<style type="text/css">
	.st0{display:none;fill:#282828;stroke:#FFFFFF;stroke-miterlimit:10;}
	.st1{fill:#414042;}
	.st2{display:none;fill:#A7A9AC;}
	.st3{display:none;fill:#808285;}
	.st4{display:none;}
	.st5{display:inline;}
	.st6{display:inline;fill:#414042;}
	.st7{fill:#A5A4A4;}
	.st8{fill:#1A1A1A;}
</style>
<g id="Layer_1">
	<polygon id="XMLID_1_" class="st0" points="635.9,1064 270.3,852.9 270.3,430.7 635.9,219.6 1001.6,430.7 1001.6,852.9 	"/>
	<g id="XMLID_15_">
		<path id="XMLID_11_" class="st1" d="M1011.6,413.4L645.9,202.3c-3.1-1.8-6.5-2.7-10-2.7c-3.5,0-6.9,0.9-10,2.7L260.3,413.4
			c-6.2,3.6-10,10.2-10,17.3v422.2c0,7.2,3.8,13.8,10,17.3l365.6,211.1c3.1,1.8,6.5,2.7,10,2.7c3.5,0,6.9-0.9,10-2.7l365.6-211.1
			c6.2-3.6,10-10.2,10-17.3V430.7C1021.6,423.6,1017.7,417,1011.6,413.4z M1001.6,852.9L635.9,1064L270.3,852.9V430.7l365.6-211.1
			l365.6,211.1V852.9z"/>
	</g>
</g>
<g id="Layer_1_copy">
	<g id="E">
		<polygon id="XMLID_22_" class="st2" points="995.6,446.2 995.6,845.3 650,1044.9 650,645.8 		"/>
	</g>
	<polygon id="XMLID_3_" class="st3" points="457.2,546 284.4,446.2 284.4,645.8 284.4,845.3 457.2,945.1 630,1044.9 630,845.3 
		630,645.8 	"/>
	<g id="S" class="st4">
		<g id="XMLID_9_" class="st5">
			<polygon id="XMLID_10_" class="st1" points="595.4,625.8 560.9,605.9 526.3,585.9 491.8,566 457.2,546 422.6,526 422.6,526 
				388.1,506.1 353.5,486.1 318.9,466.2 284.4,446.2 284.4,486.1 284.4,526 318.9,546 353.5,566 388.1,585.9 422.6,605.9 
				422.6,605.9 457.2,625.8 491.8,645.8 526.3,665.7 560.9,685.7 595.4,705.6 630,725.6 630,685.7 630,645.8 			"/>
			<polygon id="XMLID_14_" class="st1" points="284.4,526 284.4,566 284.4,605.9 318.9,625.8 353.5,645.8 353.5,605.9 353.5,566 
				318.9,546 			"/>
		</g>
		<polygon id="XMLID_13_" class="st6" points="595.4,785.5 560.9,765.5 526.3,745.5 491.8,725.6 457.2,705.6 422.6,685.7 
			422.6,685.7 388.1,665.7 353.5,645.8 353.5,645.8 318.9,625.8 284.4,605.9 284.4,645.8 284.4,685.7 318.9,705.6 353.5,725.6 
			353.5,725.6 388.1,745.5 422.6,765.5 422.6,765.5 457.2,785.5 491.8,805.4 526.3,825.4 560.9,845.3 595.4,865.3 630,885.2 
			630,845.3 630,805.4 		"/>
		<g id="XMLID_4_" class="st5">
			<polygon id="XMLID_5_" class="st1" points="560.9,925.1 560.9,925.1 526.3,905.2 491.8,885.2 457.2,865.3 422.6,845.3 
				422.6,845.3 388.1,825.4 353.5,805.4 318.9,785.5 284.4,765.5 284.4,805.4 284.4,845.3 318.9,865.3 353.5,885.2 388.1,905.2 
				422.6,925.1 422.6,925.1 457.2,945.1 491.8,965 526.3,985 560.9,1005 595.4,1024.9 630,1044.9 630,1005 630,965 595.4,945.1 			
				"/>
			<polygon id="XMLID_7_" class="st1" points="595.4,865.3 560.9,845.3 560.9,885.2 560.9,925.1 560.9,925.1 595.4,945.1 630,965 
				630,965 630,925.1 630,885.2 			"/>
		</g>
	</g>
	<polygon id="XMLID_34_" class="st1" points="788.2,645.8 857.4,605.9 857.4,605.9 926.5,566 926.5,566 995.6,526 995.6,446.2 
		926.5,486.1 926.5,486.1 857.4,526 788.2,566 719.1,605.9 650,645.8 650,725.6 650,725.6 650,805.4 650,805.4 650,885.2 650,885.2 
		650,965 650,965 650,1044.9 719.1,1005 719.1,1005 788.2,965 788.2,965 857.4,925.1 857.4,925.1 926.5,885.2 995.6,845.3 
		995.6,765.5 926.5,805.4 926.5,805.4 857.4,845.3 857.4,845.3 788.2,885.2 788.2,885.2 719.1,925.1 719.1,845.3 719.1,845.3 
		719.1,845.3 788.2,805.4 857.4,765.5 857.4,765.5 926.5,725.6 926.5,725.6 995.6,685.7 995.6,605.9 926.5,645.8 926.5,645.8 
		857.4,685.7 788.2,725.6 719.1,765.5 719.1,685.7 	"/>
	<path id="A_1_" class="st7" d="M912.5,390.8l-69.1-39.9L774.2,311l-69.1-39.9L636,231.1l-69.1,39.9L497.7,311l-69.1,39.9
		l-69.1,39.9l-69.1,39.9l69.1,39.9l69.1-39.9l69.1-39.9l69.1,39.9l69.1,39.9l69.1,39.9l-69.1,39.9l-69.1,39.9l69.1,39.9l69.1-39.9
		l69.1-39.9l69.1-39.9l69.1-39.9l69.1-39.9L912.5,390.8z M774.2,470.6l-69.1-39.9l-69.1-39.9l-69.1-39.9L636,311l69.1,39.9
		l69.1,39.9l69.1,39.9L774.2,470.6z"/>
	<polygon id="XMLID_6_" class="st8" points="595.4,625.8 560.9,605.9 526.3,585.9 491.8,566 457.2,546 422.6,526 422.6,526 
		388.1,506.1 353.5,486.1 318.9,466.2 284.4,446.2 284.4,486.1 284.4,526 284.4,566 284.4,605.9 284.4,605.9 284.4,645.8 
		284.4,685.7 318.9,705.6 353.5,725.6 353.5,725.6 388.1,745.5 422.6,765.5 422.6,765.5 457.2,785.5 491.8,805.4 526.3,825.4 
		560.9,845.3 560.9,885.2 560.9,925.1 526.3,905.2 491.8,885.2 457.2,865.3 422.6,845.3 422.6,845.3 388.1,825.4 353.5,805.4 
		318.9,785.5 284.4,765.5 284.4,805.4 284.4,845.3 318.9,865.3 353.5,885.2 388.1,905.2 422.6,925.1 422.6,925.1 457.2,945.1 
		491.8,965 526.3,985 560.9,1005 595.4,1024.9 630,1044.9 630,1005 630,965 630,965 630,925.1 630,885.2 630,845.3 630,805.4 
		595.4,785.5 560.9,765.5 526.3,745.5 491.8,725.6 457.2,705.6 422.6,685.7 422.6,685.7 388.1,665.7 353.5,645.8 353.5,645.8 
		353.5,605.9 353.5,566 388.1,585.9 422.6,605.9 422.6,605.9 457.2,625.8 491.8,645.8 526.3,665.7 560.9,685.7 595.4,705.6 
		630,725.6 630,685.7 630,645.8 	"/>
</g>
</svg>
