<svg version="1.1" xmlns="http://www.w3.org/2000/svg" xmlns:xlink="http://www.w3.org/1999/xlink" x="0px" y="0px"
   viewBox="0 0 160 166.3" style="enable-background:new 0 0 160 166.3;" xml:space="preserve">
<g id="icon">
    <line x1="160" y1="120.1" x2="160" y2="138.6" style="stroke:rgb(255,0,0);stroke-width:2"/>
    <line x1="112" y1="166.3" x2="112" y2="147.8" style="stroke:rgb(255,0,0);stroke-width:2"/>
    <line x1="160" y1="27.7" x2="160" y2="46.2" style="stroke:rgb(255,0,0);stroke-width:2"/>
    <line x1="144" y1="55.4" x2="144" y2="37" style="stroke:rgb(255,0,0);stroke-width:2"/>
    <line x1="160" y1="27.7" x2="144" y2="37" style="stroke:rgb(255,0,0);stroke-width:2"/>
    <line x1="112" y1="18.5" x2="80" y2="37" style="stroke:rgb(255,0,0);stroke-width:2"/>
    <line x1="48" y1="18.5" x2="16" y2="37" style="stroke:rgb(255,0,0);stroke-width:2"/>
    <line x1="0" y1="27.7" x2="48" y2="0" style="stroke:rgb(255,0,0);stroke-width:2"/>
    <line x1="80" y1="18.5" x2="112" y2="0" style="stroke:rgb(255,0,0);stroke-width:2"/>

    <line x1="160" y1="120.1" x2="112" y2="147.8 " style="stroke:rgb(255,0,0);stroke-width:2"/>
<line x1="80" y1="129.3" x2="96" y2="120.1" style="stroke:rgb(255,0,0);stroke-width:2"/>
<line x1="112" y1="129.3" x2="144" y2="110.8" style="stroke:rgb(255,0,0);stroke-width:2"/>

    <line x1="144" y1="73.9" x2="144" y2="92.4" style="stroke:rgb(255,0,0);stroke-width:2"/>
<line x1="128" y1="101.6" x2="128" y2="83.1" style="stroke:rgb(255,0,0);stroke-width:2"/>

<line x1="144" y1="37" x2="144" y2="55.4" style="stroke:rgb(255,0,0);stroke-width:2"/>
<line x1="112" y1="37" x2="112" y2="18.5" style="stroke:rgb(255,0,0);stroke-width:2"/>

    <line x1="144" y1="73.9" x2="128" y2="83.1" style="stroke:rgb(255,0,0);stroke-width:2"/>
<line x1="112" y1="73.9" x2="96" y2="83.1" style="stroke:rgb(255,0,0);stroke-width:2"/>
<line x1="96" y1="64.7" x2="112" y2="55.4" style="stroke:rgb(255,0,0);stroke-width:2"/>

<line x1="128" y1="83.1" x2="128" y2="101.6" style="stroke:rgb(255,0,0);stroke-width:2"/>
<line x1="112" y1="92.4" x2="112" y2="73.9" style="stroke:rgb(255,0,0);stroke-width:2"/>

<line x1="112" y1="147.8" x2="112" y2="166.3" style="stroke:rgb(255,0,0);stroke-width:2"/>
<line x1="64" y1="138.6" x2="64" y2="101.6" style="stroke:rgb(255,0,0);stroke-width:2"/>
<line x1="48" y1="92.4" x2="48" y2="73.9" style="stroke:rgb(255,0,0);stroke-width:2"/>
<line x1="64" y1="83.1" x2="64" y2="46.2" style="stroke:rgb(255,0,0);stroke-width:2"/>
<line x1="48" y1="37" x2="48" y2="18.5" style="stroke:rgb(255,0,0);stroke-width:2"/>
<line x1="80" y1="37" x2="80" y2="129.3" style="stroke:rgb(255,0,0);stroke-width:2"/>

    <line x1="112" y1="73.9" x2="112" y2="92.4" style="stroke:rgb(255,0,0);stroke-width:2"/>
<line x1="96" y1="101.6" x2="96" y2="120.1" style="stroke:rgb(255,0,0);stroke-width:2"/>
<line x1="80" y1="129.3" x2="80" y2="37" style="stroke:rgb(255,0,0);stroke-width:2"/>
<line x1="112" y1="18.5" x2="112" y2="37" style="stroke:rgb(255,0,0);stroke-width:2"/>
<line x1="96" y1="46.2" x2="96" y2="83.1" style="stroke:rgb(255,0,0);stroke-width:2"/>

<line x1="64" y1="64.7" x2="64" y2="83.1" style="stroke:rgb(255,0,0);stroke-width:2"/>
<line x1="48" y1="73.9" x2="32" y2="83.1" style="stroke:rgb(255,0,0);stroke-width:2"/>
<line x1="32" y1="64.7" x2="48" y2="55.4" style="stroke:rgb(255,0,0);stroke-width:2"/>

<line x1="48" y1="73.9" x2="48" y2="92.4" style="stroke:rgb(255,0,0);stroke-width:2"/>
<line x1="32" y1="101.6" x2="32" y2="138.6" style="stroke:rgb(255,0,0);stroke-width:2"/>
<line x1="16" y1="147.8" x2="16" y2="37" style="stroke:rgb(255,0,0);stroke-width:2"/>
<line x1="48" y1="18.5" x2="48" y2="37" style="stroke:rgb(255,0,0);stroke-width:2"/>
<line x1="32" y1="46.2" x2="32" y2="83.1" style="stroke:rgb(255,0,0);stroke-width:2"/>

<line x1="16" y1="147.8" x2="0" y2="138.6" style="stroke:rgb(255,0,0);stroke-width:2"/>
    <line x1="160" y1="120.1" x2="112" y2="147.8 " style="stroke:rgb(255,0,0);stroke-width:2"/>
<line x1="80" y1="129.3" x2="96" y2="120.1" style="stroke:rgb(255,0,0);stroke-width:2"/>
<line x1="112" y1="129.3" x2="144" y2="110.8" style="stroke:rgb(255,0,0);stroke-width:2"/>

<line x1="144" y1="73.9" x2="144" y2="92.4" style="stroke:rgb(255,0,0);stroke-width:2"/>
<line x1="128" y1="101.6" x2="128" y2="83.1" style="stroke:rgb(255,0,0);stroke-width:2"/>

<line x1="144" y1="37" x2="144" y2="55.4" style="stroke:rgb(255,0,0);stroke-width:2"/>
<line x1="112" y1="37" x2="112" y2="18.5" style="stroke:rgb(255,0,0);stroke-width:2"/>

<line x1="144" y1="73.9" x2="128" y2="83.1" style="stroke:rgb(255,0,0);stroke-width:2"/>
<line x1="112" y1="73.9" x2="96" y2="83.1" style="stroke:rgb(255,0,0);stroke-width:2"/>
<line x1="96" y1="64.7" x2="112" y2="55.4" style="stroke:rgb(255,0,0);stroke-width:2"/>

<line x1="128" y1="83.1" x2="128" y2="101.6" style="stroke:rgb(255,0,0);stroke-width:2"/>
<line x1="112" y1="92.4" x2="112" y2="73.9" style="stroke:rgb(255,0,0);stroke-width:2"/>

<line x1="112" y1="147.8" x2="112" y2="166.3" style="stroke:rgb(255,0,0);stroke-width:2"/>
<line x1="64" y1="138.6" x2="64" y2="101.6" style="stroke:rgb(255,0,0);stroke-width:2"/>
<line x1="48" y1="92.4" x2="48" y2="73.9" style="stroke:rgb(255,0,0);stroke-width:2"/>
<line x1="64" y1="83.1" x2="64" y2="46.2" style="stroke:rgb(255,0,0);stroke-width:2"/>
<line x1="48" y1="37" x2="48" y2="18.5" style="stroke:rgb(255,0,0);stroke-width:2"/>
<line x1="80" y1="37" x2="80" y2="129.3" style="stroke:rgb(255,0,0);stroke-width:2"/>

<line x1="112" y1="73.9" x2="112" y2="92.4" style="stroke:rgb(255,0,0);stroke-width:2"/>
<line x1="96" y1="101.6" x2="96" y2="120.1" style="stroke:rgb(255,0,0);stroke-width:2"/>
<line x1="80" y1="129.3" x2="80" y2="37" style="stroke:rgb(255,0,0);stroke-width:2"/>
<line x1="112" y1="18.5" x2="112" y2="37" style="stroke:rgb(255,0,0);stroke-width:2"/>
<line x1="96" y1="46.2" x2="96" y2="83.1" style="stroke:rgb(255,0,0);stroke-width:2"/>

<line x1="64" y1="64.7" x2="64" y2="83.1" style="stroke:rgb(255,0,0);stroke-width:2"/>
<line x1="48" y1="73.9" x2="32" y2="83.1" style="stroke:rgb(255,0,0);stroke-width:2"/>
<line x1="32" y1="64.7" x2="48" y2="55.4" style="stroke:rgb(255,0,0);stroke-width:2"/>

<line x1="48" y1="73.9" x2="48" y2="92.4" style="stroke:rgb(255,0,0);stroke-width:2"/>
<line x1="32" y1="101.6" x2="32" y2="138.6" style="stroke:rgb(255,0,0);stroke-width:2"/>
<line x1="16" y1="147.8" x2="16" y2="37" style="stroke:rgb(255,0,0);stroke-width:2"/>
<line x1="48" y1="18.5" x2="48" y2="37" style="stroke:rgb(255,0,0);stroke-width:2"/>
<line x1="32" y1="46.2" x2="32" y2="83.1" style="stroke:rgb(255,0,0);stroke-width:2"/>

<line x1="16" y1="147.8" x2="0" y2="138.6" style="stroke:rgb(255,0,0);stroke-width:2"/>
<line x1="0" y1="27.7" x2="16" y2="37" style="stroke:rgb(255,0,0);stroke-width:2"/>

</g>
</svg>
