<svg width="120px" height="126px" viewBox="0 0 120 126" version="1.1" xmlns="http://www.w3.org/2000/svg" xmlns:xlink="http://www.w3.org/1999/xlink">
            <polygon id="Shape" fill="#B3B3B3" points="59.81 0.026 0.553 20.88 9.916 98.517 59.873 125.974 110.087 98.146 119.447 20.511"></polygon>
            <polygon id="Shape" fill="#A6120D" points="113.536 24.998 59.672 6.629 59.672 119.414 104.813 94.431"></polygon>
            <polygon id="Shape" fill="#DD1B16" points="7.201 25.329 15.227 94.763 59.671 119.414 59.671 6.627"></polygon>
            <path d="M74.499,66.67 L59.672,73.604 L44.044,73.604 L36.697,91.978 L23.034,92.232 L59.672,10.724 L74.499,66.67 Z M73.065,63.179 L59.77,36.858 L48.864,62.726 L59.671,62.726 L73.065,63.179 Z" id="Shape" fill="#F2F2F2"></path>
            <polygon id="Shape" fill="#B3B3B3" points="59.671 10.724 59.769 36.858 72.144 62.746 59.698 62.746 59.671 73.587 76.88 73.604 84.922 92.234 97.996 92.476"></polygon>
</svg>